<svg xmlns="http://www.w3.org/2000/svg" xmlns:xlink="http://www.w3.org/1999/xlink" viewBox="3769.339 -797.6 29.6 40.8">
  <defs>
    <style>
      .cls-1 {
        fill: url(#linear-gradient);
      }
    </style>
    <linearGradient id="linear-gradient" x1="0.5" y1="-0.699" x2="0.5" y2="1.478" gradientUnits="objectBoundingBox">
      <stop offset="0.15" stop-color="#00cfff"/>
      <stop offset="1" stop-color="#00ffb0"/>
    </linearGradient>
  </defs>
  <g id="FlareFlame" transform="translate(3769.339 -797.6)">
    <path id="Pfad_5" data-name="Pfad 5" class="cls-1" d="M25.047,40.886h-4.98a.843.843,0,0,1-.806-1.1c1.261-3.943,1.955-12.159,2.058-15.87a.241.241,0,0,0-.448-.128,10.656,10.656,0,0,1-2,2.26.244.244,0,0,1-.407-.153A38.788,38.788,0,0,0,16.152,15.78a.245.245,0,0,0-.469.029c-1.261,5.562-3.826,5.256-5.2,4.8a.238.238,0,0,0-.3.306,35.516,35.516,0,0,1,1.622,8.37.235.235,0,0,1-.272.255,9.88,9.88,0,0,1-2.66-.87.242.242,0,0,0-.333.307c1.435,3.465,1.856,8.9,1.968,11.02a.844.844,0,0,1-.844.893H5.472a.846.846,0,0,1-.678-.342C3.107,38.28-5.68,24.965,5.835,6.9a.181.181,0,0,1,.3,0c2.551,3.7,2.806,4.562,3.443,5.112a.167.167,0,0,0,.255-.042A56.387,56.387,0,0,0,14.156.213.17.17,0,0,1,14.481.2c.871,2.918,2.942,7.859,5.314,10.163a.168.168,0,0,0,.172.04c2.1-.7,4.263-3.872,4.9-5.062a.166.166,0,0,1,.3.027c1.011,3.116,9.049,19.493.6,35.1a.847.847,0,0,1-.728.417Z" transform="translate(0.001 -0.086)"/>
  </g>
</svg>
